<svg id="Lager_1" data-name="Lager 1" xmlns="http://www.w3.org/2000/svg" viewBox="0 0 588.99 198.55"><title>Rityta 1</title><path d="M371.15,71.62a14.81,14.81,0,0,0-11.8,5.7,40.69,40.69,0,0,0-7.4,14,95.52,95.52,0,0,0-3.77,18,163.31,163.31,0,0,0-1.13,18.78q0,23.58,7.68,41.06c5.12,11.66,14.18,18.27,27.08,17.49,17.05-1,29.19-11.23,29.19-11.23-13.53,15.93-34.42,20.2-46,20-19.12-.27-35.38-5.83-48.8-17.49s-20.13-27.07-20.13-46.24q0-29,19.75-46.64T365,67.47a79.65,79.65,0,0,1,20.38,2.47,83.87,83.87,0,0,1,17.48,6.73,59.26,59.26,0,0,1,15.6,12.18,26.22,26.22,0,0,1,7.42,18.52q0,9.6-5.81,15.42t-17.16,5.83a26,26,0,0,1-17.79-7.13q-8-7.12-7.95-16.19a34,34,0,0,1,2.76-13.47Q382.7,85.35,382.7,81a8.48,8.48,0,0,0-3-6.74c-2-1.72-4.86-2.59-8.54-2.59"/><path d="M83.31,195.47h49.18l-.35-32.39V104.79q0-14-13-24.36T88.21,70.07q-20.59,0-27.75,7.38T50.55,92.09V72.66H2.92l.17,28.5v61.92l-.17,32.39h49l-.38-32.39V96.76A63,63,0,0,1,57.4,85.1Q61,79.4,69.74,79.4q13.7,0,13.7,20.21l.25,10.62v52.85Z"/><path d="M575.4,176.38q-5.91-9.16-18.71-30.5t-25.1-42l30.17-31.72-6.1.17s-28.19,30.09-37,39.57S501,130.76,492.17,140.07l.5-133.55h-49l-.2,188.87h50.08l-.88-50.93,4.74-5.17q6.46,10.34,13.45,21.71t10.34,17.32l9.8,17.15,56-.16s-7.63-12.81-11.56-18.93"/><path d="M273.75,162.58V103q0-18.21-17.12-26.93a81.24,81.24,0,0,0-37.49-8.72Q195,67.32,177.5,77T160,102.71a15.29,15.29,0,0,0,6.42,12.88,24.3,24.3,0,0,0,15,4.81q15.62,0,22.54-6.24t6.92-14.32q0-8.59-5.35-12.89t-5.35-7.16a7,7,0,0,1,3.36-6,14.12,14.12,0,0,1,8.33-2.35q7.94,0,10.43,4.42t2.49,14.54L225,114c0,3.12-.92,5.32-2.76,6.62s-4.9,2.51-9.17,3.64-10.92,2.12-20,3-15.73,1.91-20.08,3.12-8.63,4.46-12.81,9.74S154,152.38,154,161q0,16.11,10,25.19t26.11,9.08c10,0,18.16-1.8,24.48-5.25,7.12-3.89,8.68-13.39,8.68-13.39a20.57,20.57,0,0,1-2.86,3.88,11,11,0,0,1-8.31,3.88q-6.21,0-7.95-7t-1.74-18.66a83.16,83.16,0,0,1,1.37-15.16q1.37-7.38,3.72-10c1.57-1.72,4.39-3.5,8.44-5.31s6.83-3.76,8.32-5.83l.75.25,0,72.73h48.64s0-30.46,0-32.89"/><path d="M242.91,48A15.8,15.8,0,0,0,254,44a13.26,13.26,0,0,0,4.38-10.28,12.75,12.75,0,0,0-4.5-9.75,16.39,16.39,0,0,0-21.78.1,12.72,12.72,0,0,0-4.61,9.65,13.12,13.12,0,0,0,4.61,10.07A15.54,15.54,0,0,0,242.91,48"/><path d="M191.05,48q6.91,0,11.06-4a13.61,13.61,0,0,0,4.15-10.28,12.81,12.81,0,0,0-4.38-9.86,15.52,15.52,0,0,0-10.83-4A15.89,15.89,0,0,0,180,24.1a12.76,12.76,0,0,0-4.61,9.65A13.16,13.16,0,0,0,180,43.82,15.84,15.84,0,0,0,191.05,48"/></svg>