<svg id="Lager_1" data-name="Lager 1" xmlns="http://www.w3.org/2000/svg" viewBox="0 0 555.23 367.11"><defs><style>.cls-1{fill:#fff;}</style></defs><title>Rityta 1</title><path class="cls-1" d="M258.82,88c-3.21.57-6.41,1.21-9.64,1.69-8.29,1.24-16.56,2-25,1.08C213.61,89.58,210,79.37,214.82,71c2.65-4.6,7.93-4.47,12.05,0,2.26,2.46,4.44,5.2,7.19,7,6.47,4.2,13.77,3.62,21,2.44,3.77-.61,7.5-1.52,11.21-2.45a5.78,5.78,0,0,0,3.18-1.68c8.68-11.62,15.82-24,15.36-39.1A27.75,27.75,0,0,0,274.54,16.3c-4.23-3.58-8.55-3.72-12.83-.23a24.35,24.35,0,0,0-5,5.78c-2.67,4.19-9.84,5.81-13.77,2.7a5.84,5.84,0,0,1-2-3.31c-.67-4.15-.2-8,2.82-11.45,6-6.73,13-11.11,22.23-9.43a30.15,30.15,0,0,1,22,16,44,44,0,0,1,4.36,31.51,64.94,64.94,0,0,1-9.94,22.2c-.58.86-1.15,1.73-2,3a14.87,14.87,0,0,0,3.32,0c11-2.8,21.94-6.19,33.09-8.38,14.94-2.95,30-3,44.47,2.72,11,4.37,20.13,11.2,26.11,21.71a36.32,36.32,0,0,1,4.63,20,4.49,4.49,0,0,0,2.69,4.66c9.21,5,18.25,10.32,27.63,15,7.79,3.85,15.88,7.16,24,10.22a237.9,237.9,0,0,0,22.82,7.38c14.76,3.93,29.73,7.3,45.09,5.07,10.63-1.53,20.17-5.92,26.69-15,5-7,5.65-14.84,3-22.91-3.3-10.17-10.22-17.27-19.52-22.22-9.73-5.18-21.88-3.36-28.62,4.49a24.24,24.24,0,0,0-3.77,6.38c-1.31,3.11.46,7,4,8.64a38,38,0,0,0,7.76,2.7c2.39.55,2.91,1.76,2.69,4-.72,7.39-6.49,10-12.86,8.83-4.86-.85-9.49-2.61-12.79-6.55-4.56-5.46-4.29-12.17-1.06-18.29,8.19-15.52,26.09-22.11,42.7-16.09C534.17,89.57,544,96.12,550.31,107a36.18,36.18,0,0,1,4.08,10.6c3.53,17.29-4.36,29.66-18.15,38.67-14.45,9.45-30.62,11.94-47.61,9.62a121.71,121.71,0,0,1-31.16-9c-20.53-8.73-39.12-20.92-58-32.58-2-1.22-3.88-2.52-5.83-3.74s-3-.76-3.59,1.3c-4.24,15.42-13.42,27.24-26.61,36-11.12,7.39-23.49,11.58-36.52,14.17a147.8,147.8,0,0,1-35.34,3,107.4,107.4,0,0,1-29.79-5.8c-10.51-3.56-21-7.24-31.25-11.44-9.28-3.78-18.26-8.28-27.32-12.59a4.53,4.53,0,0,0-4.95.29,221.42,221.42,0,0,1-33,17.84c-16.23,7-32.93,12.12-50.88,11.26-10.91-.52-21.1-3.55-29.76-10.41-8.45-6.69-10.91-15.82-8.86-26.06,2.52-12.63,11-20.07,22.65-24.32,6.77-2.45,13.69-3.43,20.68-1.28a29.78,29.78,0,0,1,7.77,3.89,7.09,7.09,0,0,1,2.85,8.49,8.9,8.9,0,0,1-6.65,6.32c-5.67,1.38-11.26-1.43-14.85-7.46-1.55-2.58-2.27-2.79-4.86-1.28-4.92,2.86-9.15,6.37-11.59,11.73a18.81,18.81,0,0,0-.4,14.55c4.53,12.71,14.68,17.09,27.18,17.55,11.57.43,22.64-2.32,33.47-6a220.64,220.64,0,0,0,39.17-18,8.57,8.57,0,0,0,1.58-1.55,8.81,8.81,0,0,0-1.77-1.69q-12.75-6.65-25.56-13.2c-8.93-4.55-17.74-9.4-26.89-13.47a225.42,225.42,0,0,0-26.82-10.26C94,96.85,75.88,94.69,57.59,98.63c-17.36,3.74-31.76,12.3-41.14,27.92-3.86,6.42-6.25,13.33-5.73,21,.35,5.22,2.09,9.56,7.23,11.78,6.54,2.83,12.83,3,18.37-2.2a43.91,43.91,0,0,0,4.08-4.91,4.52,4.52,0,0,1,5-1.8c3.86,1,7.33,2.68,9.86,5.92,1.67,2.14,1.69,4.17,0,6.27-4.23,5.22-10,8.27-16.1,10.5-7.12,2.6-14.49,3.31-21.68.33-8.22-3.41-14-9.19-16.15-18.14-.47-2-1.3-3.94-1.27-5.9a43.79,43.79,0,0,1,5-18.79c6.11-12.35,15.47-21.74,27.25-28.81C51.65,90.15,72.8,86.09,95.2,87c16.53.64,32.76,3.33,49,6,11.41,1.87,21.87,0,30.16-8.81a15.87,15.87,0,0,0,4.41-8.92c.59-4.46-3.08-7.46-7.37-6.3a49.61,49.61,0,0,1-10.52,1.5c-7.34.34-9.82-6-8.14-11.11,1.77-5.41,4.49-7.8,10.18-8.1,8.74-.46,15.85,2.87,21,9.93A11.87,11.87,0,0,1,186,67.6c.19,12.8-6.45,21.58-17.18,27.64-2.52,1.42-5.37,2.26-8,3.47a7.73,7.73,0,0,0-1.69,1.47c.46.44.85,1.06,1.41,1.31,6.23,2.81,12.49,5.55,18.72,8.35q15.08,6.75,30.11,13.56a2.46,2.46,0,0,1,.5.18c4.73,3.78,8.46,1.64,12.58-1.53,12.49-9.61,24.54-19.68,35.26-31.26a19.9,19.9,0,0,0,1.6-2.25Zm-36.66,40.91c2.15,1,3.56,1.76,5,2.39,9.21,4,18.38,8.06,27.66,11.85,6.4,2.61,12.84,5.38,19.51,7A131.05,131.05,0,0,0,297,153.75c20.79,1.41,41.1-1,60.18-9.94,11.66-5.48,20.89-13.42,24.43-26.55.63-2.33.2-3.65-1.9-4.77-7.85-4.18-15.77-8.23-24.49-10.26-7.35-1.71-14.63-1.82-21.41,2.37-5.36,3.31-6.47,7.67-3,12.8a24.44,24.44,0,0,0,3.88,4.37c2.34,2.1,2.81,4.71,2.3,7.53-.78,4.3-4,6.24-7.78,7.57-7.15,2.5-17.12-1.88-18.86-8.87-3.05-12.25,1.95-25,15.51-29.4,10.89-3.55,21.92-2.27,32.68.6,7.44,2,14.65,4.9,21.9,7.55,1.81.67,2.5-.11,2.52-1.51.1-6.26-.41-12.47-3.12-18.24-4.63-9.85-13-14.73-23.2-16.88-15.28-3.22-30.41-1.19-45.26,2.35-11.9,2.84-23.54,6.82-35.25,10.42a5.23,5.23,0,0,0-3,2.35c-1.45,3.12.46,9.59,5.18,10,2.45.2,5-.38,7.42-.23s5.13.07,6.8,1.32c5.15,3.84,3.15,10.33-1.74,12.92-8.54,4.52-24.08,2.06-25.41-13.64a8,8,0,0,0-.92-2.26,12.47,12.47,0,0,0-1.9,1.15c-9.89,8.66-19.72,17.39-29.65,26C229.62,123.31,226.08,125.83,222.16,128.89Z"/><path class="cls-1" d="M524.71,223.6q0,24,0,48.1c0,.8,0,1.6.08,2.4.29,5.7,2.36,7.95,8,8.25,2,.1,3.66.61,3.49,2.63-.09,1.06-1.61,2.55-2.77,2.88-7.16,2.05-14.43,3.77-21.62,5.73-2.39.65-3.23-.94-4.12-2.44-2.81-4.78-2.73-4.69-7.57-2.21-13.64,7-27.26,6.88-40.43-1-8.3-5-13.19-12.61-15.2-22.16a48.32,48.32,0,0,1,2-26.8,35.3,35.3,0,0,1,15.15-18.35c12-7.33,25-9.14,38.76-7.85,3.66.35,3.73.26,3.72-3.47,0-6.42,0-12.83-.1-19.24a32.91,32.91,0,0,0-.92-6.84c-1.1-4.65-1.93-5.17-6.86-5.08-2.61.05-3.59-1-2.67-3a2.62,2.62,0,0,1,1.71-1.38c8.71-1.22,17.44-2.32,26.16-3.47,2.43-.32,3.24.64,3.23,3.14-.1,16.74-.05,33.49-.05,50.23Zm-20.53,29.13c0-8.29-.13-16.58.07-24.85a6.11,6.11,0,0,0-3.05-5.73c-7.91-5.42-19.8-4.46-26.91,2.22-5.11,4.8-7.52,10.94-8.33,17.7-1.76,14.64,1.46,27.66,13.68,37.05,6,4.63,12.94,6.64,20.59,4.07,3.18-1.06,3.95-2,3.95-5.35Q504.17,265.29,504.18,252.73Z"/><path class="cls-1" d="M360.84,254.57c0,7.21,0,14.43,0,21.65a29.43,29.43,0,0,0,.37,4.78c.64,4,1.68,4.91,5.65,5.52,1.89.29,4.69-.28,4.45,2.84-.25,3.31-3.14,1.92-4.87,1.94-10.87.13-21.74.09-32.61.07-1.5,0-3.49.55-3.68-1.92s1.58-2.62,3.37-2.81c5.29-.58,6.42-1.48,6.5-6.85.22-14.25.19-28.5.19-42.76a90.45,90.45,0,0,0-.43-9.6c-.42-4-3-5.81-6.86-5.1-1.36.25-2.83.77-3.21-1.13a2.94,2.94,0,0,1,2.31-3.66c3.59-1,7.16-2.2,10.82-2.9,4.72-.9,9.5-1.47,14.27-2,3.07-.35,3.3,0,3.33,3.17,0,1-.1,2,0,2.94.05.66.23,1.79.52,1.85a2.94,2.94,0,0,0,2.16-.48,31.94,31.94,0,0,1,14.6-6.76c7.77-1.5,15.63-1.93,23.07,1.52,8.73,4.05,11.56,12,12.31,20.69.61,7,.35,14.06.41,21.09.06,7.49,0,15,.08,22.45.07,5.19,1.78,6.95,6.94,7.57a5.32,5.32,0,0,1,2.56.59,3.22,3.22,0,0,1,1.1,2.38c0,.59-1,1.37-1.66,1.62a8,8,0,0,1-2.65.1H385.94a4.46,4.46,0,0,1-1.84-.12c-.7-.34-1.69-1-1.75-1.54a4.38,4.38,0,0,1,1-2.46c.24-.34,1-.39,1.48-.48,7.27-1.23,8.14-2.12,8.17-9.45.05-11,.18-22.1-.18-33.13a47.14,47.14,0,0,0-2.42-12.74c-2.9-8.93-12.72-10.62-20.15-8.8a17.15,17.15,0,0,0-3.24,1.23c-4.16,2-6.7,4.59-6.3,9.87.54,6.91.14,13.89.14,20.84Z"/><path class="cls-1" d="M314,288.55c-.56.84-.8,1.66-1.33,1.95-6.87,3.86-18.38,5.24-25.46.26a15.16,15.16,0,0,1-3.48-3.62c-1.09-1.53-2.13-1.34-3.35-.42a34.68,34.68,0,0,1-25.08,7c-6.68-.67-12.63-3.08-16.45-9.07a17,17,0,0,1-1.63-15.1c3.2-9.61,11.19-14.21,19.88-17.51,6.87-2.61,14.08-4.31,21.1-6.55.9-.29,2.18-1.35,2.22-2.11.25-5.24.42-10.55-2.53-15.27-3.41-5.45-10.74-7.6-17.53-5.39-6.26,2-10.27,6.37-13.2,12a30,30,0,0,1-2.71,3.7c-1.15-1.26-2.6-2.35-3.38-3.81-2.37-4.46-2.25-4.5,1.39-8,10.84-10.44,23.59-15.55,38.78-14.07,11.5,1.13,17.67,6.7,19.06,17.89.88,7,.63,14.22.86,21.34.28,8.45.28,16.91.9,25.33.47,6.31,4,10.6,10.37,10.74C312.84,287.88,313.24,288.21,314,288.55Zm-33.78-23.82.33,0c0-3.21,0-6.41,0-9.62,0-1.79-.82-2.72-2.59-2.55-2,.19-3.89.45-5.81.81a16.8,16.8,0,0,0-14,17.79c.5,10.1,9.37,15.8,18.66,11.83,2-.85,4.58-1.73,4.41-4.69C281,273.75,280.59,269.24,280.23,264.73Z"/><path class="cls-1" d="M46,212.4a41.19,41.19,0,0,1,18.2,3.52,5.38,5.38,0,0,1,2.87,3.35c.75,5.1,1,10.27,1.51,15.41.15,1.65,0,2.95-2.23,3.08-3.71.24-4.72-.14-5.17-2.56-1-5.6-3.37-10.45-8.05-13.92-5.69-4.22-12.91-3.28-16.44,2.07-2.68,4.06-2.17,10.39,2,13.58a97.59,97.59,0,0,0,14,8.53c5.35,2.82,10.9,5.32,15.12,9.77,5.92,6.23,7.29,13.58,4.66,21.71-3,9.35-10.21,13.68-19.19,15.67A56.7,56.7,0,0,1,22.68,291c-3.31-1.09-5.89-2.46-6.28-6.49-.51-5.39-1.43-10.75-2.12-16.13-.23-1.8-.11-3.42,2.36-3.61,3.44-.27,4.43.27,5.06,2.81,1.92,7.73,5.9,14,13,18.06,5.75,3.3,13.27,2.44,16.93-1.92s3.25-11.68-1.14-16.28-10-6.59-15.39-9.33-11-5.42-15-10.38a20.77,20.77,0,0,1,7.68-31.88C33.44,213.26,39.35,212.41,46,212.4Z"/><path class="cls-1" d="M102.8,249.6c0-8,0-16,0-24,0-2.31-.75-3.46-3.18-3.57a66.43,66.43,0,0,1-7.43-.81c-1.38-.23-2.88-.59-2.77-2.58s1.46-2.47,3.08-2.64c2.39-.24,4.8-.36,7.18-.71,1.63-.23,3.47-.86,3-2.94-.92-4.34,1.67-6.59,4.66-8.68,4.43-3.1,8.87-6.2,13.41-9.14.91-.6,2.57-1,3.36-.56s.82,2.14.72,3.24c-.36,4.35-1,8.67-1.37,13-.37,4.59-.27,4.65,4.22,5.07,3.19.3,6.4.46,9.6.68.8.06,1.76-.11,2.35.28.93.61,2,1.51,2.23,2.45.12.6-1.22,2.06-2,2.18-4.13.6-8.3,1-12.48,1.26s-4.08.18-4.07,4.33c0,13.09-.09,26.19.21,39.28a33,33,0,0,0,2.25,11.43c2.23,5.48,7.92,7.92,14.44,7.07a32.59,32.59,0,0,1,4.19-.74,3.47,3.47,0,0,1,2.64,1.22c.63,1.11.78,2.56-.93,3.35-10.11,4.65-20.45,7.86-31.68,4.55-5-1.46-8.53-4.9-9.58-9.82a125.09,125.09,0,0,1-2.09-17.94c-.33-5.05-.07-10.15-.07-15.23Z"/><path class="cls-1" d="M191.14,255.61c0,7.3-.06,14.61,0,21.92.06,6.32,1.89,8.19,8.19,8.78,1.06.1,2.12.27,3.19.34a2.47,2.47,0,0,1,2.62,2.72c0,2-1.44,2-2.82,2H166.25a20.87,20.87,0,0,1-4.26-.05c-.81-.17-2.08-1.17-2.05-1.75a3.59,3.59,0,0,1,1.64-2.52c.94-.53,2.25-.43,3.39-.59,3.21-.44,5.22-2.32,5.44-5.56s.19-6.58.18-9.88q0-20.31-.18-40.63a11.11,11.11,0,0,0-.91-3.84c-1.23-3.2-2.78-3.95-6.23-3.42-1.18.17-2.8,1.23-3.37-.79-.52-1.85.38-3,2.29-3.5,7.66-2,15.27-4.15,23-6,3.41-.81,3.81-.28,4.21,3.19.18,1.5.17,3,.38,4.52.09.62.5,1.65.82,1.68a2.78,2.78,0,0,0,2-.78,33.24,33.24,0,0,1,10.91-7.92,16.59,16.59,0,0,1,18.63,4.8c1.29,1.66.66,3.23-.29,4.39a68.57,68.57,0,0,1-7.27,7.68c-.8.7-2.65.73-3.83.4-3.59-1-7.05-2.47-10.62-3.56-5.05-1.53-9,1.51-9,6.71q0,10.83,0,21.66Z"/><path class="cls-1" d="M379.53,332.22s.12-.2.24-.2c6.46.22,12.94.28,19.38.75,3.34.24,5.48,2.55,6.2,5.79a7.84,7.84,0,0,1-3.57,8.58c-2.35,1.59-2.87,2.9-1.14,5.3,1.86,2.58,3.27,5.47,5,8.12a18.72,18.72,0,0,0,2.66,2.51,17.59,17.59,0,0,1,1.34,1.63,8.81,8.81,0,0,1-2.11.64c-6,.25-9.2-3.21-11.39-8.3a19.93,19.93,0,0,0-3.47-5.23,3.1,3.1,0,0,0-2.84-.45c-.61.25-1.05,1.55-1.11,2.42a21.85,21.85,0,0,0,.09,5.6c.24,1.33,1.19,2.54,1.82,3.8.26.51.54,1,.81,1.51a5.4,5.4,0,0,1-1.59.62q-4.41.15-8.8.13a5.14,5.14,0,0,1-1.59-.59l1-1.65c.6-1.05,1.7-2.1,1.72-3.16.15-7.66.23-15.33-.05-23C382.07,335.43,380.46,333.86,379.53,332.22Zm9.21,9.49c0,1.43.08,2.86,0,4.27-.17,2.14.89,2.81,2.85,2.85,3.69.09,5.95-1.5,7.08-5.17a7.11,7.11,0,0,0-7-9.4c-1.83.08-3.07.76-2.92,2.92C388.81,338.68,388.73,340.2,388.74,341.71Z"/><path class="cls-1" d="M331.8,347a20.66,20.66,0,0,0,2.37,1.55,7.34,7.34,0,0,1,4.43,6.72c.11,3.26-.83,6.36-4,7.5a51.58,51.58,0,0,1-11.3,2.48,75.2,75.2,0,0,1-9.85.12,5.7,5.7,0,0,1-1.6-.5c.28-.57.44-1.48.88-1.64,1.73-.66,1.8-2,1.79-3.47,0-7.56.16-15.13-.11-22.68-.06-1.64-1.64-3.22-2.56-4.9,0,0,.2-.29.4-.29,6.29.19,12.59.19,18.85.72a6,6,0,0,1,5.77,5.68,7,7,0,0,1-4.08,7.42,5.5,5.5,0,0,0-.83.63A3.8,3.8,0,0,0,331.8,347Zm-6.35,16.45c1.49-.63,3.19-1,4.44-1.94,2.54-1.94,2.95-6.11,1.18-8.92-1.94-3.09-6.15-4.92-8.87-3.66a2.8,2.8,0,0,0-1.07,2.1c-.13,2.56,0,5.14-.05,7.71C321.06,362.69,321.41,363.05,325.45,363.48Zm-4.34-23.07h-.05c0,1.15.06,2.31,0,3.47-.08,1.46.39,2.38,2,2.61a6.27,6.27,0,0,0,7.35-7.6c-.54-2.87-3.52-4.83-6.83-4.62-3.61.24-2.17,2.93-2.41,4.8A10,10,0,0,0,321.11,340.41Z"/><path class="cls-1" d="M276.58,345c.67-2.35,3.67-3.05,6.19-1.45,3.35,2.14,4.78,7.41,3,11.17a4.81,4.81,0,0,1-.65,1.15c-1.88,2.23-1.58,4.24.51,6.12a1.81,1.81,0,0,1,.59.87c.31,1.42.54,2.85.8,4.27a22.55,22.55,0,0,1-3.31-2.09c-2.27-2-4.12-2.67-7.27-.88-5.2,3-11,2.76-16.45.18-6.19-2.92-6.95-10.63-1.23-14.78,2.65-1.93,3.1-3.63,2.36-6.66a9.15,9.15,0,0,1,8.93-11.49c2.21,0,4.5.63,5.08,2.66a10.51,10.51,0,0,1-.45,6.31c-.62,1.57-2.4,2.76-3.82,3.92-1.65,1.34-2.1,2.54-.28,4.07,2.93,2.45,5.81,4.95,8.72,7.43,1.59,1.35,2.46,1,2.79-1.1C282.83,350,281.46,347.57,276.58,345Zm.47,15.89c-4.08-3.5-7.94-6.73-11.69-10.06-2.1-1.87-3.15-1.67-4.14,1.05a8.29,8.29,0,0,0,3.13,9.6c3.21,2.19,9.84,2.41,12.06.37A4.85,4.85,0,0,0,277.05,360.87Zm-5.39-23.51a3.63,3.63,0,0,0-.16-.65c-.74-2-3.21-2.39-5-1.51a3.05,3.05,0,0,0-1.48,2.11,6.7,6.7,0,0,0,.76,5.4,2.22,2.22,0,0,0,1.1,1,1.85,1.85,0,0,0,1.5-.2,4.93,4.93,0,0,0,1.16-1,9.25,9.25,0,0,0,1.77-2.65A4.56,4.56,0,0,0,271.66,337.36Z"/><path class="cls-1" d="M175.29,366.11c-10.61.12-18-6.74-18.08-16.77-.08-10.36,7.69-18,18.3-18.06,10.78,0,17.92,6.46,18,16.4C193.59,358.3,186,366,175.29,366.11Zm11-17.39a27.12,27.12,0,0,0-1.74-8.49c-1.44-3.87-4.22-6.6-8.57-7a8.88,8.88,0,0,0-9.42,5.6c-3,7.16-2.91,14.47,1.29,21.17,3.37,5.39,11.9,5.14,15.39-.13A18.77,18.77,0,0,0,186.31,348.72Z"/><path class="cls-1" d="M202.18,332.09H214.1c0,.34.12.6.05.65-4.83,3.48-2.53,8.58-2.72,13-.09,2,1.93,1.62,2.94.59,2.4-2.47,4.71-5,6.85-7.73,2.79-3.48,2.7-3.55-.43-6.5h11.58a15.62,15.62,0,0,1-1.16,1.52c-3.61,3.48-7.31,6.88-10.79,10.48a3.38,3.38,0,0,0-.4,3.15q3.61,6.19,7.72,12.1c1,1.47,2.62,2.55,3.93,3.84a9.35,9.35,0,0,1,.89,1.18c-.46.34-.91.94-1.38,1-4.19.18-8-.65-10.4-4.55-2-3.16-3.93-6.32-6.05-9.36-.53-.75-1.68-1.06-2.54-1.57a10.23,10.23,0,0,0-.86,2.57c-.13,2.13-.05,4.27,0,6.4,0,1.85-.37,3.84,2.12,4.6.31.09.42.86.63,1.32a5,5,0,0,1-1.52.64q-4.4.11-8.79,0a5.32,5.32,0,0,1-1.59-.56c.3-.57.6-1.14.89-1.72.6-1.17,1.68-2.34,1.71-3.53.16-7.29.25-14.6,0-21.89C204.63,335.86,203.11,334.07,202.18,332.09Z"/><path class="cls-1" d="M131.48,350c0,4,0,7.92.06,11.88,0,.45,1,.83,1.45,1.32a15.19,15.19,0,0,1,1,1.56,5.91,5.91,0,0,1-1.79.66c-2.76.05-5.51,0-8.26-.06a6.8,6.8,0,0,1-1.84-.59c.3-.53.61-1.06.89-1.61.57-1.12,1.58-2.24,1.6-3.37.15-7.48.23-15,0-22.43-.06-1.7-1.57-3.34-2.52-5.22h12.06c-4.88,3.61-2.37,8.63-2.76,13-.18,2,1.4,2.81,2.69,1.45a118.6,118.6,0,0,0,9-10.72c.35-.46-1.13-2.28-1.86-3.66h11.09c-.75.86-1.18,1.44-1.7,1.94-3.61,3.47-7.29,6.88-10.8,10.45a2.81,2.81,0,0,0-.09,2.62c2.83,4.5,5.78,8.93,8.8,13.3a22.8,22.8,0,0,0,2.85,2.69,9.1,9.1,0,0,1,.94,1.41c-.51.27-1,.76-1.54.78-4,.16-7.61-.65-9.94-4.39-2-3.16-4-6.3-6.08-9.36a12.48,12.48,0,0,0-2.44-2.1Z"/><path class="cls-1" d="M367.09,365.14c-1.31.1-2.91.3-4.5.28-.58,0-1.15-.55-1.73-.85.35-.43.63-1.12,1.06-1.25,1.83-.53,1.79-1.8,1.36-3.17-.56-1.77-.9-3.76-2-5.18a6.39,6.39,0,0,0-4-2.07c-5.09-.19-6.78.7-8.37,5.22a13.11,13.11,0,0,1-.86,1.93c-.49,1.38-.66,2.6,1.26,3.1.54.14.92.87,1.37,1.33-.56.31-1.11.86-1.69.89-2,.09-4.09.07-6.12,0a2.32,2.32,0,0,1-1.47-.83c-.14-.17.3-.88.57-1.28,1.3-1.94,3-3.7,3.89-5.8,3.36-7.89,6.41-15.91,9.73-23.82a3.47,3.47,0,0,1,2.52-1.76c.62,0,1.61,1.19,1.94,2,3.37,8.67,6.57,17.4,10,26.05.5,1.26,1.92,2.15,2.86,3.25a9.91,9.91,0,0,1,.84,1.46,4.68,4.68,0,0,1-1.6.67C370.59,365.36,369,365.23,367.09,365.14Zm-7.42-14.68-3.37-9.75c-.75.5-3.33,9.63-2.89,9.67C355.3,350.56,357.22,350.46,359.67,350.46Z"/><circle class="cls-1" cx="180.49" cy="324.32" r="2.65"/><circle class="cls-1" cx="170.56" cy="324.32" r="2.65"/></svg>